<svg width="34" height="31" viewBox="0 0 34 31" fill="none" xmlns="http://www.w3.org/2000/svg">
<path d="M0 8C0 3.58172 3.58172 0 8 0H26C30.4183 0 34 3.58172 34 8V16C34 20.4183 30.4183 24 26 24H11.6704C10.6531 24 9.66005 24.3103 8.82375 24.8894L1.56932 29.9132C0.906103 30.3725 0 29.8978 0 29.0911V24V8Z" fill="white"/>
<path d="M15.7266 14.5078C15.7266 13.7786 15.8151 13.1979 15.9922 12.7656C16.1693 12.3333 16.4922 11.9089 16.9609 11.4922C17.4349 11.0703 17.75 10.7292 17.9062 10.4688C18.0625 10.2031 18.1406 9.92448 18.1406 9.63281C18.1406 8.7526 17.7344 8.3125 16.9219 8.3125C16.5365 8.3125 16.2266 8.43229 15.9922 8.67188C15.763 8.90625 15.6432 9.23177 15.6328 9.64844H13.3672C13.3776 8.65365 13.6979 7.875 14.3281 7.3125C14.9635 6.75 15.8281 6.46875 16.9219 6.46875C18.026 6.46875 18.8828 6.73698 19.4922 7.27344C20.1016 7.80469 20.4062 8.55729 20.4062 9.53125C20.4062 9.97396 20.3073 10.3932 20.1094 10.7891C19.9115 11.1797 19.5651 11.6146 19.0703 12.0938L18.4375 12.6953C18.0417 13.0755 17.8151 13.5208 17.7578 14.0312L17.7266 14.5078H15.7266ZM15.5 16.9062C15.5 16.5573 15.6172 16.2708 15.8516 16.0469C16.0911 15.8177 16.3958 15.7031 16.7656 15.7031C17.1354 15.7031 17.4375 15.8177 17.6719 16.0469C17.9115 16.2708 18.0312 16.5573 18.0312 16.9062C18.0312 17.25 17.9141 17.5339 17.6797 17.7578C17.4505 17.9818 17.1458 18.0938 16.7656 18.0938C16.3854 18.0938 16.0781 17.9818 15.8438 17.7578C15.6146 17.5339 15.5 17.25 15.5 16.9062Z" fill="#F93262"/>
</svg>
